<svg xmlns="http://www.w3.org/2000/svg" width="1571" height="1074"><path fill="#2b5597" d="M1453.5 1074h-1335c-15.4.1-30.6-2.9-44.9-8.8-14.2-5.8-27.1-14.4-38.1-25.3-10.9-10.8-19.5-23.7-25.5-38-5.9-14.2-9-29.4-9-44.8V116.9c0-15.4 3.1-30.6 9-44.8 6-14.3 14.6-27.2 25.5-38 11-10.9 23.9-19.5 38.1-25.3C87.9 2.9 103.1-.1 118.5 0h1335c15.3-.1 30.6 2.9 44.8 8.8 14.3 5.8 27.2 14.4 38.1 25.3 11 10.8 19.6 23.7 25.6 38 5.9 14.2 9 29.4 9 44.8v840.2c0 15.4-3.1 30.6-9 44.8-6 14.3-14.6 27.2-25.6 38-10.9 10.9-23.8 19.5-38.1 25.3-14.2 5.9-29.5 8.9-44.8 8.8"/><g fill="#fff"><path d="M782 515.3q-3.8 3.7-7.4 7.4-1.1 1.1-2.2 2.3l-1.4 1.5q-1.1 1.2-2.1 2.5-1.6 1.8-2.9 3.9-.3.5-.6.9-.3.5-.6.9l-.6 1q-.2.4-.5.9l-.8 1.6q-.3.6-.5 1.1l-.4 1q-.1.6-.3 1.1t-.3 1.1q-.1.3-.1.6l-.2.6q0 .3-.1.6 0 .3-.1.6v.6q0 .3-.1.6v2.2q.1.2.1.5v.4q.1.3.1.5.1.2.1.4.1.3.1.5.1.2.1.4l.2.4q.1.2.1.4l.2.4q.1.2.2.3l.4.8q.3.3.5.6l.6.6.6.6q.2.2.4.3t.4.3l.4.2q.2.2.4.3.2 0 .3.1t.2.1q.2.1.3.1.1.1.3.1.3.2.6.3t.7.2l.6.2q.4.1.7.2.8.2 1.7.3c.6.1 1.4.2 2.1.2h4l2.5-.1 2.3-.1z"/><g fill-rule="evenodd"><path d="M1297.4 155.3c9 .2 17.9 2.2 26.2 5.8 8.2 3.6 15.7 8.8 22 15.3s11.3 14.1 14.7 22.5c3.4 8.3 5.1 17.3 5.1 26.3v366.6c0 9.1-1.8 18.2-5.3 26.7s-8.6 16.2-15.1 22.7-14.2 11.6-22.6 15.1c-8.5 3.6-17.6 5.4-26.8 5.4h-168.1v71.8h60.6v185.1H896.5V733.5H948v-80.3l-3.6 2.1q-3.9 2.6-7.8 5.1-3.9 2.4-7.9 4.7-9.1 5.3-18.4 10.3-4.8 2.6-9.7 4.9-10.9 5.4-22.3 9.9c-6.9 2.8-13.9 5.2-21 7.4q-2.2.6-4.5 1.2-2.2.7-4.5 1.2l-4.6 1q-2.3.5-4.6.9l-4 .6-4.2.6q-2 .2-4.1.4-2 .2-4.1.3-4 .3-8.1.4-4 0-8.1-.1-4-.1-8-.4-4.1-.3-8.1-.7-1.3-.2-2.7-.4c-1.3-.2-2.5-.4-3.8-.7v31.7h51.8v185H547v-185h51.7V601.4H443.6v132.2h51.7v185.1H206.7V733.6h51.7V362h-51.7V155.3h288.6V362h-51.7v132.2h155.1V362H547V155.3h288.5V362h-51.7v119.5l1.1-.6.9-.5q1.7-1.2 3.5-2.3c1.8-1.1 3.6-2.2 5.6-3.2q4.8-2.7 9.8-5.3 7.35-3.75 15-7.5 10.2-4.9 20.6-9.6 11.8-5.7 23.8-10.7 12.1-5 24.2-9.7 10.4-4.2 20.8-8.1 7.5-2.8 15-5.4c3.3-1.1 6.7-2.2 10-3.2q3.3-1 6.7-2 2.4-.7 4.9-1.2l2-.5v20.2l3.9-1.2 6.5-1.9 3.9-1.2c.8-.3 1.8-.6 2.8-.9q1.6-.5 3.2-.9 4.5-1.3 8.9-2.4 5.3-1.3 10.7-2.4 1.8-.4 3.7-.7l2.1-.3h.7c.7-.1 1.4-.2 2.1-.2q.4-.1.8-.1h1.5q.4 0 .7.1h.8q.2 0 .3.1h.4q.2 0 .4.1.2 0 .4.1.2 0 .4.1.1 0 .2.1.1 0 .3.1.1 0 .2.1.1 0 .3.1.1 0 .2.1.1 0 .1.1.1.1.2.1.1.1.2.1.1.2.2.3t.3.2q.1.2.1.3.1.1.2.3 0 .1.1.1v.2q0 .1.1.1v1.4q0 .1-.1.2v.2q0 .1-.1.3v.2q-.1.2-.1.3-.1.1-.1.3-.1.1-.2.3 0 .2-.1.4-.1.1-.2.3-.1.1-.2.3t-.2.5q-.1.2-.3.4-.1.2-.2.5-.2.2-.3.4c-.5.7-1 1.4-1.6 2.1-1.1 1.4-2.1 2.6-3.4 3.9-1.3 1.4-2.4 2.4-3.9 3.9q-2.3 2.3-4.8 4.3c-1 .8-1.8 1.4-3.1 2.4s-2.6 1.9-3.9 2.8q-5 3.4-10.2 6.5-6 3.6-12.1 7l-11.8 6.5V432l-19.6 7.3c-4.8 1.8-9.6 3.6-14.4 5.5q-10.7 4-21.3 8.2-12.6 5.2-25.2 10.5-8.3 3.4-16.5 7-5.7 2.4-11.3 5-3.7 1.7-7.3 3.5-9.9 5-19.6 10.7-7.5 4.3-14.7 8.9c-2.4 1.5-4.5 3.1-6.8 4.8l-6.8 5.2-.5.5v-27.9l-.9.7-2.8 2.1q-3.6 2.5-7 5.1-3 2.1-5.7 4.4-2.8 2.3-5.4 4.8-2.5 2.5-4.9 5.2t-4.5 5.6q-2.8 3.9-5.3 7.8-.7 1.3-1.5 2.6-.7 1.2-1.4 2.5t-1.3 2.6q-.7 1.3-1.3 2.7-.8 1.6-1.5 3.2-.6 1.7-1.3 3.4-.6 1.6-1.2 3.3-.5 1.7-1 3.5-.4 1.4-.7 2.9-.3 1.4-.5 2.9-.2 1.4-.3 2.9t0 3q-.1.7 0 1.5 0 .7.1 1.4 0 .8.1 1.5l.2 1.4q.2 1.1.5 2.2t.7 2.1q.5 1 1 1.9.6 1 1.3 1.9.6.8 1.3 1.6t1.5 1.6q.7.8 1.5 1.5t1.7 1.4q1.9 1.6 4.1 2.9 2.1 1.4 4.4 2.5 2.2 1.1 4.6 2t4.9 1.5l2.1.5q-7.2 7.8-14 16-4.3 5.2-8.2 10.7-1.6 2.2-3.2 4.5-1.6 2.4-3 4.8-1.5 2.3-2.9 4.8-1.3 2.4-2.6 4.9-.4.9-.9 1.8-.4.9-.7 1.8-.4.9-.7 1.8-.4.9-.7 1.8-.7 2.1-1.2 4.3t-.8 4.4-.3 4.4q-.1 2.3 0 4.5.2 3.1.8 6.1.7 3.1 1.7 6t2.5 5.7q1.4 2.8 3.2 5.3 1 1.5 2.1 2.9 1.2 1.4 2.4 2.7t2.5 2.6q1.3 1.2 2.7 2.3 3.1 2.6 6.5 4.7t7.1 3.8q3.6 1.7 7.4 2.9t7.8 1.9l6.3 1.6 1.3.2 1.3.3 2.1.6v-22.8l-3.9-1.3-4.1-1.5q-1.9-.7-3.7-1.5-1-.4-2.1-.9l-1.6-.8c-.4-.2-.6-.2-1.2-.6-.7-.4-1.4-.9-1.9-1.2-.5-.4-.9-.8-1.4-1.2q-.5-.4-.9-.9-.5-.4-.9-.9-.5-.5-.8-1-.4-.5-.8-1.1-.3-.4-.5-.9-.3-.4-.5-.9-.3-.5-.5-.9l-.4-1c-.3-.8-.6-1.5-.8-2.4-.3-.9-.5-1.9-.7-2.8l-.2-.8q0-.5-.1-.9t-.1-.8q-.1-.4-.1-.9c-.1-1.3-.3-2.6-.3-3.9q0-1.1.1-2.3 0-1.2.1-2.3 0-1.2.2-2.3.1-1.2.3-2.3c.2-1.7.5-3.4.9-4.9q.5-2.3 1.2-4.5l.4-1q.2-.5.3-1l.4-1q.2-.5.4-.9.8-1.9 1.8-3.7.4-.8.9-1.6t.9-1.6q.5-.8 1-1.5.6-.8 1.1-1.5c.6-.9 1.2-1.6 2-2.6.8-1.1 1.5-1.9 2.5-3q1.4-1.7 2.9-3.3 3.2-3.6 6.7-7l3.4-3.4v-34.9c.6 0 1.2-.2 1.8-.2l1.2-.2q.9-.1 1.7-.3.9-.2 1.7-.4t1.7-.5q.8-.2 1.7-.4 2.2-.7 4.5-1.5 3.2-1.1 6.4-2.3 9.6-3.5 19.2-7.4 11.9-4.7 23.9-9.5l2.6-1.1 5.9-2.6 4.8-2.1h1.6q.1 0 .3.1.1 0 .3.1.1.1.3.2l.3.3q0 .1.1.1 0 .1.1.2v.1l.1.1q.1.1.1.2.1.1.1.2t.1.2v.2q.1.2.1.3.1.2.1.4 0 .1.1.3v.3q.1.2.1.5t.1.5v1.1q0 .4.1.8v1.7q-.1.5-.1.9 0 .6-.1 1.3-.1.6-.1 1.2-.1.7-.2 1.3t-.2 1.3c-.3 1.7-.7 3.5-1.1 5.2-.2.6-.4 1.3-.6 1.8q-.2.7-.5 1.3l-.5 1-1.6.6-10.3 3.9q-7.2 2.7-14.3 5.7c-4.2 1.8-8.3 3.6-12.4 5.5q-4.8 2.2-9.5 4.7c-2.5 1.3-4.9 2.7-7.3 4.1-2 1.2-4.1 2.5-6.1 3.8q-2.8 1.8-5.5 3.8l-9 6.5-1.6 1.6v80.9l13.9 2.3c3.3.5 6.6.9 9.7 1.2 3.2.3 6.3.5 9.5.5q1.1.1 2.2 0h2.3q1.1-.1 2.2-.1l2.2-.2q1.2-.1 2.4-.3 1.1-.1 2.3-.3 1.1-.2 2.3-.4 1.1-.2 2.3-.4c3.4-.6 6.6-1.5 10.3-2.6q5.4-1.6 10.8-3.6l15.2-5.7 14.2-6q7-3.1 13.8-6.6 7.9-4.2 15.5-8.9 9.4-6 18.4-12.6l8.3-6 6.1-4.7v28.4l.6-.4 12.6-9.4q5.5-4 10.8-8.3l2.8-2.4q1.4-1.2 2.7-2.4 1.4-1.3 2.7-2.6 1.3-1.2 2.6-2.6 1.3-1.3 2.6-2.7 1.3-1.5 2.4-3 1.2-1.4 2.3-3 1.1-1.5 2.2-3.1l2.2-3.4 2.6-5.3 1-2.2q.5-1.2 1-2.3.5-1.2.9-2.4.4-1.1.7-2.3.6-1.9 1-3.8.4-1.8.7-3.8.2-1.9.2-3.8.1-1.9 0-3.8-.1-1.4-.3-2.7-.2-1.4-.5-2.7l-.8-2.6q-.5-1.2-1-2.5-.7-1.4-1.5-2.6-.9-1.3-2-2.4t-2.3-2q-1.3-.9-2.6-1.6-.7-.2-1.3-.5l-1.2-.4q-.7-.2-1.3-.4-.7-.2-1.3-.3-.5-.2-1.1-.2-.5-.1-1.1-.2-.5-.1-1.1-.1-.5-.1-1.1-.1h-2.7q-.9 0-1.9.1-.9 0-1.8.1l-1.8.2h-.2q-2.5.3-5 .8-2.4.4-4.9 1l-4.8 1.2q-2.5.7-4.8 1.5c-2.1.7-4.1 1.4-6 2.2v-73.4q-7.8 3.3-16 6.6-8.2 3.2-16.5 6.1-2.1.8-4.2 1.5l-1.8.6h-1.6l-1.6-1.1-.2-.2-.2-.2q-.1-.2-.2-.3t-.2-.3q-.1-.1-.2-.3-.1-.1-.1-.3-.1-.2-.2-.3-.1-.2-.1-.4l-.2-.4q-.1-.2-.1-.5l-.2-.4q0-.2-.1-.5v-.3q0-.1-.1-.3v-.5q0-.2-.1-.4v-.7q.1-.2.1-.4c0-.5-.1-1 0-1.6 0-.6.2-1.3.2-2l.2-1.2q.1-.7.2-1.3.2-.6.3-1.2l.4-1.2q.1-.7.4-1.4.2-.7.4-1.3.3-.7.5-1.3.3-.7.6-1.3l1-.5 2.6-.9q3.5-1.2 6.9-2.5t6.7-2.7c4.1-1.7 8.2-3.5 12.1-5.4 1.5-.8 3.2-1.6 4.5-2.3q1.8-1 3.7-2.1l2.6-1h.6v24.1q1.3-.5 2.6-1.1l2.6-1.2q1.3-.6 2.5-1.3 1.3-.6 2.5-1.3c4.9-2.6 10-5.5 14.5-8.3 4.4-2.8 8.8-5.6 13-9q6.45-4.95 12.3-10.5l2-2c2.3-2.3 4.5-4.8 6.7-7.2q1.7-1.8 3.3-3.7 1.5-1.9 3-3.9l2.8-4q1.3-2.1 2.5-4.2.6-1.1 1.1-2.1l1-2.2q.5-1.1.9-2.2t.7-2.2q.3-.8.5-1.5.2-.8.3-1.6.2-.7.3-1.5t.1-1.6q.1-.5.1-1.1v-1.1q0-.6-.1-1.2 0-.6-.1-1.1l-.4-1.8q-.3-.8-.7-1.7-.3-.8-.8-1.6-.5-.7-1.1-1.4-.5-.6-1-1.1t-1.1-.9q-.6-.5-1.2-.9t-1.2-.7q-1.2-.6-2.3-1.1-1.2-.5-2.5-.8-1.2-.4-2.4-.7-1.3-.3-2.6-.4-1.9-.3-3.9-.4l-4-.2h-4q-2 .1-4 .3-4.6.4-9.1 1.1c-2.3.4-4.6.8-6.8 1.3q-13.2 3.1-26 7.3V362h-51.7V155.3h400.8M947.7 624.7l.2-.1v.1l-.2.1zm.2-.1v-32.1l-9.6 4.1-14.1 5.9-23.2 12.1-21.6 11.7-24.8 14.3-18 10.6-1.5 1-2.2 1.1h-1.6l-1-1.1-.6-1v-9l.3-1.7q.2-1.5.5-3 0-.3.1-.6.1-.2.2-.5 0-.3.1-.6t.2-.5q.1-.3.2-.5l.2-.4q.1-.2.2-.5l.2-.4c.4-.7.8-1.3 1.4-2.1q.8-1.2 1.7-2.3.3-.4.6-.7.3-.4.6-.7.3-.4.6-.7l.7-.7q.9-.9 1.9-1.8 1.3-1.1 2.7-2.2 3.75-3 7.8-5.7 4.8-3.4 9.8-6.6 7.3-5 14.8-9.7 5.5-3.5 11.1-6.8 4.4-2.6 8.9-5.1c4.4-2.4 8.9-4.6 13.4-6.7q3.7-1.7 7.4-3.2c3.3-1.4 7-2.9 10.1-4.1q4.7-1.9 9.5-3.8l5.5-2.1c1-.4 1.9-.7 2.8-1q1.3-.5 2.7-.9l1.4-.4.6-.2v26.5l1.8-.6 5.1-1.5 10.7-2.8 1-.2 1.5-.2c1.3-.2 2.7-.3 4-.3h4l.6.1h.3q.1 0 .2.1h.2q.2.1.3.1.1.1.2.1t.2.1l.1.1q.1 0 .2.1.1 0 .2.1h.1l.1.1q.1.1.2.1.2.2.3.4l.3.3.2.4q.1.2.1.5 0 .1.1.2v1.7q0 .2-.1.4v.3q-.1.1-.1.3-.1.2-.1.4-.1.2-.1.4l-.2.4q-.1.2-.1.4-.2.3-.4.7t-.3.8q-.2.4-.4.7-.2.4-.4.7c-.3.5-.6.9-.9 1.5-.4.5-.6.9-1.2 1.6s-.9 1.1-1.8 2.1c-.8.9-1.5 1.7-2.6 2.6-1 1-2 2-3.1 3l-5.2 4.7zm240-231.9c0-4.1-.8-8-2.3-11.8-1.6-3.7-3.8-7.1-6.7-9.9-2.8-2.9-6.2-5.1-9.9-6.7-3.7-1.5-7.7-2.3-11.8-2.3h-29.9v222.6h30c4 0 8-.8 11.7-2.4 3.8-1.5 7.1-3.8 10-6.6 2.8-2.9 5.1-6.3 6.6-10 1.6-3.7 2.4-7.7 2.4-11.7z"/><path d="M1446.2 1022.2H125.9c-9.6 0-19-1.9-27.8-5.6-8.8-3.6-16.8-9-23.6-15.7-6.7-6.8-12.1-14.8-15.7-23.6-3.7-8.8-5.5-18.2-5.5-27.8l.2-824.5c0-9.6 1.9-19 5.5-27.8 3.7-8.8 9-16.8 15.7-23.6 6.8-6.7 14.8-12 23.6-15.7s18.2-5.6 27.7-5.6l1320.1-.5c9.5 0 19 1.9 27.8 5.5 8.8 3.7 16.8 9 23.5 15.8 6.8 6.7 12.1 14.7 15.8 23.5 3.6 8.8 5.5 18.3 5.5 27.8v825.1c0 9.5-1.9 18.9-5.5 27.7-3.7 8.8-9 16.8-15.8 23.6-6.7 6.7-14.7 12.1-23.5 15.7-8.8 3.7-18.3 5.6-27.7 5.7M126 79c-6 0-11.9 1.2-17.5 3.5s-10.6 5.7-14.9 10c-4.2 4.2-7.6 9.3-9.9 14.8-2.3 5.6-3.5 11.6-3.5 17.6L80 949.5c0 6 1.2 12 3.5 17.5 2.3 5.6 5.7 10.7 9.9 14.9 4.3 4.3 9.3 7.7 14.9 10s11.5 3.5 17.6 3.5h1320.3c6 0 11.9-1.2 17.5-3.5s10.6-5.7 14.9-10c4.2-4.3 7.6-9.3 9.9-14.9s3.5-11.5 3.5-17.5v-825c0-6-1.2-12-3.5-17.5-2.3-5.6-5.6-10.7-9.9-14.9-4.3-4.3-9.3-7.7-14.9-10s-11.5-3.5-17.5-3.5z"/></g></g></svg>